<svg width="188" height="28" viewBox="0 0 188 28" fill="none" xmlns="http://www.w3.org/2000/svg">
<path id="Combined Shape" fill-rule="evenodd" clip-rule="evenodd" d="M14 21.0629L5.09091 28L8.49319 17.062L0 10.1818H10.1818L14 0L17.8182 10.1818H28L19.5068 17.062L22.9091 28L14 21.0629ZM54 21.0629L45.0909 28L48.4932 17.062L40 10.1818H50.1818L54 0L57.8182 10.1818H68L59.5068 17.062L62.9091 28L54 21.0629ZM85.0909 28L94 21.0629L102.909 28L99.5068 17.062L108 10.1818H97.8182L94 0L90.1818 10.1818H80L88.4932 17.062L85.0909 28ZM134 21.0629L125.091 28L128.493 17.062L120 10.1818H130.182L134 0L137.818 10.1818H148L139.507 17.062L142.909 28L134 21.0629ZM165.091 28L174 21.0629L182.909 28L179.507 17.062L188 10.1818H177.818L174 0L170.182 10.1818H160L168.493 17.062L165.091 28Z" fill="#505050"/>
</svg>
